<?xml version="1.0" encoding="UTF-8"?>
<svg xmlns="http://www.w3.org/2000/svg" xmlns:xlink="http://www.w3.org/1999/xlink" width="100px" height="50px" viewBox="0 0 100 50" version="1.1">
<g id="surface1">
<path style=" stroke:none;fill-rule:nonzero;fill:rgb(0%,0%,0%);fill-opacity:1;" d="M 4.011719 28.914062 C 4.015625 28.792969 4.019531 28.675781 4.019531 28.5625 C 4.019531 28.148438 4.035156 27.738281 4.0625 27.328125 C 4.09375 26.917969 4.113281 26.507812 4.125 26.09375 C 4.144531 25.621094 4.160156 25.152344 4.171875 24.6875 C 4.1875 24.222656 4.214844 23.757812 4.257812 23.285156 C 4.269531 23.171875 4.304688 23.09375 4.359375 23.058594 C 4.414062 23.023438 4.496094 23.003906 4.609375 23.003906 C 4.660156 23.003906 4.726562 23.015625 4.8125 23.035156 C 4.898438 23.054688 4.941406 23.101562 4.941406 23.179688 C 4.980469 23.1875 5.023438 23.1875 5.0625 23.1875 C 5.121094 23.1875 5.183594 23.183594 5.246094 23.171875 C 5.347656 23.15625 5.453125 23.136719 5.558594 23.113281 C 5.667969 23.09375 5.773438 23.070312 5.878906 23.050781 C 5.984375 23.03125 6.085938 23.023438 6.179688 23.023438 C 6.203125 23.023438 6.234375 23.023438 6.277344 23.027344 C 6.320312 23.027344 6.359375 23.039062 6.402344 23.050781 C 6.441406 23.066406 6.476562 23.082031 6.503906 23.105469 C 6.535156 23.125 6.546875 23.15625 6.546875 23.1875 C 6.546875 23.222656 6.515625 23.253906 6.449219 23.28125 C 6.382812 23.308594 6.292969 23.332031 6.183594 23.351562 C 6.078125 23.371094 5.960938 23.386719 5.835938 23.402344 C 5.710938 23.417969 5.585938 23.429688 5.46875 23.4375 C 5.347656 23.449219 5.242188 23.457031 5.148438 23.460938 C 5.058594 23.46875 4.992188 23.46875 4.949219 23.46875 L 4.941406 25.078125 L 4.949219 25.875 C 5.039062 25.875 5.171875 25.871094 5.347656 25.867188 C 5.417969 25.863281 5.492188 25.863281 5.5625 25.863281 C 5.667969 25.863281 5.78125 25.867188 5.894531 25.871094 C 6.082031 25.878906 6.253906 25.898438 6.402344 25.921875 C 6.554688 25.949219 6.648438 25.992188 6.6875 26.058594 C 6.6875 26.097656 6.667969 26.132812 6.628906 26.15625 C 6.585938 26.179688 6.539062 26.199219 6.488281 26.210938 C 6.4375 26.21875 6.386719 26.226562 6.332031 26.230469 C 6.28125 26.234375 6.242188 26.234375 6.21875 26.234375 C 6.007812 26.234375 5.796875 26.230469 5.582031 26.222656 C 5.371094 26.214844 5.160156 26.195312 4.949219 26.171875 C 4.949219 26.519531 4.941406 26.867188 4.921875 27.214844 C 4.902344 27.558594 4.894531 27.90625 4.894531 28.253906 C 4.894531 28.40625 4.894531 28.554688 4.898438 28.703125 C 4.902344 28.847656 4.917969 28.996094 4.949219 29.140625 C 5.027344 29.132812 5.109375 29.128906 5.199219 29.117188 C 5.289062 29.109375 5.382812 29.097656 5.472656 29.085938 C 5.566406 29.074219 5.65625 29.0625 5.742188 29.054688 C 5.828125 29.046875 5.902344 29.042969 5.964844 29.042969 C 5.996094 29.042969 6.042969 29.046875 6.101562 29.054688 C 6.160156 29.0625 6.21875 29.078125 6.28125 29.097656 C 6.34375 29.117188 6.394531 29.140625 6.441406 29.171875 C 6.484375 29.203125 6.503906 29.238281 6.503906 29.277344 C 6.503906 29.324219 6.464844 29.363281 6.378906 29.398438 C 6.296875 29.433594 6.1875 29.460938 6.058594 29.484375 C 5.925781 29.503906 5.78125 29.519531 5.628906 29.527344 C 5.472656 29.539062 5.320312 29.542969 5.175781 29.546875 C 5.03125 29.546875 4.902344 29.550781 4.785156 29.550781 L 4.535156 29.550781 C 4.378906 29.550781 4.265625 29.519531 4.191406 29.460938 C 4.121094 29.402344 4.070312 29.328125 4.039062 29.234375 C 4.019531 29.15625 4.007812 29.070312 4.011719 28.972656 Z M 7.5625 27.730469 C 7.5625 27.507812 7.585938 27.304688 7.632812 27.125 C 7.679688 26.945312 7.757812 26.792969 7.859375 26.667969 C 7.960938 26.539062 8.097656 26.445312 8.261719 26.375 C 8.429688 26.304688 8.632812 26.269531 8.871094 26.269531 C 9.003906 26.269531 9.140625 26.285156 9.28125 26.324219 C 9.421875 26.359375 9.539062 26.425781 9.640625 26.519531 C 9.640625 26.464844 9.644531 26.347656 9.65625 26.167969 C 9.667969 25.992188 9.683594 25.785156 9.699219 25.546875 C 9.71875 25.308594 9.734375 25.0625 9.753906 24.804688 C 9.773438 24.542969 9.789062 24.304688 9.800781 24.082031 C 9.816406 23.859375 9.828125 23.671875 9.839844 23.523438 C 9.851562 23.371094 9.859375 23.285156 9.867188 23.265625 C 9.894531 23.183594 9.949219 23.132812 10.023438 23.117188 C 10.101562 23.101562 10.175781 23.09375 10.242188 23.09375 C 10.421875 23.09375 10.53125 23.121094 10.574219 23.179688 C 10.613281 23.238281 10.636719 23.351562 10.636719 23.523438 C 10.636719 24.144531 10.609375 24.765625 10.550781 25.382812 C 10.496094 26.003906 10.46875 26.625 10.46875 27.246094 C 10.46875 27.648438 10.476562 28.050781 10.492188 28.457031 C 10.507812 28.863281 10.566406 29.265625 10.660156 29.65625 L 10.707031 29.699219 L 10.734375 29.777344 L 10.671875 29.875 C 10.5625 29.941406 10.4375 29.976562 10.292969 29.976562 L 10.277344 29.976562 C 10.132812 29.976562 9.996094 29.941406 9.875 29.875 C 9.828125 29.847656 9.792969 29.761719 9.761719 29.621094 C 9.730469 29.480469 9.707031 29.324219 9.691406 29.15625 C 9.675781 28.984375 9.660156 28.824219 9.652344 28.664062 C 9.644531 28.507812 9.636719 28.398438 9.632812 28.332031 C 9.53125 28.558594 9.394531 28.757812 9.222656 28.921875 C 9.050781 29.082031 8.835938 29.164062 8.570312 29.164062 C 8.367188 29.164062 8.199219 29.121094 8.066406 29.03125 C 7.9375 28.945312 7.835938 28.832031 7.761719 28.695312 C 7.691406 28.558594 7.636719 28.40625 7.609375 28.238281 C 7.578125 28.066406 7.5625 27.898438 7.5625 27.730469 Z M 8.082031 27.753906 C 8.082031 27.820312 8.089844 27.917969 8.105469 28.046875 C 8.121094 28.175781 8.144531 28.300781 8.179688 28.429688 C 8.214844 28.558594 8.261719 28.671875 8.320312 28.773438 C 8.382812 28.871094 8.464844 28.921875 8.5625 28.921875 C 8.699219 28.855469 8.820312 28.746094 8.925781 28.59375 C 9.035156 28.441406 9.128906 28.273438 9.207031 28.089844 C 9.285156 27.90625 9.347656 27.722656 9.390625 27.539062 C 9.433594 27.355469 9.457031 27.199219 9.457031 27.0625 C 9.457031 26.894531 9.394531 26.757812 9.273438 26.644531 C 9.152344 26.535156 9.003906 26.476562 8.832031 26.476562 C 8.78125 26.476562 8.730469 26.488281 8.675781 26.507812 C 8.625 26.527344 8.574219 26.550781 8.53125 26.578125 C 8.425781 26.675781 8.34375 26.765625 8.285156 26.847656 C 8.226562 26.929688 8.179688 27.011719 8.152344 27.101562 C 8.121094 27.1875 8.101562 27.28125 8.09375 27.386719 C 8.085938 27.492188 8.082031 27.617188 8.082031 27.753906 Z M 11.433594 27.40625 C 11.433594 27.347656 11.441406 27.273438 11.453125 27.179688 C 11.464844 27.085938 11.480469 26.992188 11.496094 26.898438 C 11.515625 26.804688 11.535156 26.71875 11.558594 26.640625 C 11.578125 26.5625 11.605469 26.507812 11.636719 26.488281 C 11.660156 26.464844 11.699219 26.441406 11.757812 26.417969 C 11.8125 26.394531 11.871094 26.378906 11.929688 26.371094 C 11.992188 26.359375 12.050781 26.363281 12.101562 26.382812 C 12.15625 26.402344 12.1875 26.4375 12.199219 26.496094 C 12.160156 26.546875 12.121094 26.632812 12.089844 26.757812 C 12.054688 26.882812 12.03125 27.019531 12.015625 27.171875 C 12 27.296875 11.992188 27.429688 11.992188 27.566406 L 11.992188 27.640625 C 11.996094 27.800781 12.011719 27.945312 12.035156 28.082031 C 12.0625 28.214844 12.101562 28.324219 12.152344 28.410156 C 12.207031 28.5 12.277344 28.542969 12.375 28.542969 C 12.574219 28.542969 12.753906 28.449219 12.921875 28.265625 C 13.085938 28.082031 13.230469 27.859375 13.359375 27.59375 C 13.488281 27.328125 13.601562 27.046875 13.699219 26.75 C 13.792969 26.453125 13.878906 26.191406 13.945312 25.96875 C 13.960938 25.90625 14.003906 25.859375 14.066406 25.835938 C 14.132812 25.816406 14.199219 25.808594 14.273438 25.8125 C 14.347656 25.820312 14.414062 25.839844 14.472656 25.867188 C 14.53125 25.894531 14.566406 25.929688 14.578125 25.96875 C 14.519531 26.449219 14.476562 26.925781 14.441406 27.40625 C 14.410156 27.882812 14.394531 28.367188 14.394531 28.847656 C 14.394531 28.945312 14.398438 29.03125 14.40625 29.109375 C 14.414062 29.1875 14.410156 29.253906 14.394531 29.308594 C 14.378906 29.363281 14.339844 29.410156 14.28125 29.441406 C 14.222656 29.472656 14.128906 29.492188 14 29.492188 C 13.972656 29.492188 13.9375 29.488281 13.890625 29.480469 C 13.847656 29.476562 13.800781 29.46875 13.753906 29.453125 C 13.707031 29.441406 13.667969 29.421875 13.636719 29.394531 C 13.601562 29.371094 13.585938 29.339844 13.585938 29.304688 C 13.585938 29.097656 13.59375 28.878906 13.609375 28.65625 C 13.625 28.433594 13.648438 28.21875 13.675781 28.011719 C 13.597656 28.125 13.515625 28.234375 13.421875 28.34375 C 13.328125 28.453125 13.226562 28.550781 13.117188 28.640625 C 13.003906 28.726562 12.886719 28.800781 12.757812 28.851562 C 12.628906 28.90625 12.492188 28.929688 12.34375 28.929688 C 12.132812 28.929688 11.964844 28.878906 11.84375 28.78125 C 11.722656 28.679688 11.632812 28.558594 11.570312 28.40625 C 11.511719 28.257812 11.472656 28.09375 11.457031 27.917969 C 11.441406 27.742188 11.433594 27.570312 11.433594 27.40625 Z M 15.453125 27.695312 C 15.453125 27.492188 15.480469 27.285156 15.53125 27.078125 C 15.585938 26.871094 15.664062 26.6875 15.777344 26.523438 C 15.886719 26.359375 16.03125 26.226562 16.203125 26.125 C 16.375 26.019531 16.578125 25.96875 16.8125 25.96875 C 16.910156 25.96875 17.019531 25.980469 17.140625 26.007812 C 17.257812 26.03125 17.371094 26.070312 17.472656 26.121094 C 17.570312 26.175781 17.65625 26.242188 17.726562 26.328125 C 17.796875 26.410156 17.832031 26.515625 17.832031 26.636719 C 17.832031 26.714844 17.8125 26.765625 17.773438 26.789062 C 17.730469 26.816406 17.679688 26.828125 17.613281 26.828125 L 17.585938 26.785156 C 17.585938 26.785156 17.554688 26.75 17.5 26.675781 C 17.445312 26.605469 17.40625 26.558594 17.386719 26.535156 C 17.367188 26.515625 17.328125 26.472656 17.273438 26.410156 C 17.15625 26.292969 17.046875 26.230469 16.945312 26.222656 L 16.910156 26.222656 C 16.824219 26.222656 16.742188 26.246094 16.671875 26.296875 C 16.585938 26.363281 16.515625 26.449219 16.449219 26.5625 C 16.386719 26.675781 16.332031 26.796875 16.289062 26.925781 C 16.246094 27.054688 16.214844 27.183594 16.1875 27.316406 C 16.164062 27.445312 16.152344 27.554688 16.152344 27.640625 C 16.152344 27.757812 16.167969 27.890625 16.195312 28.039062 C 16.21875 28.1875 16.265625 28.332031 16.332031 28.464844 C 16.394531 28.597656 16.476562 28.710938 16.574219 28.800781 C 16.671875 28.894531 16.796875 28.9375 16.953125 28.9375 C 17.089844 28.9375 17.21875 28.90625 17.332031 28.835938 C 17.445312 28.769531 17.554688 28.691406 17.660156 28.609375 C 17.761719 28.523438 17.863281 28.449219 17.964844 28.382812 C 18.0625 28.316406 18.167969 28.28125 18.273438 28.28125 C 18.316406 28.28125 18.363281 28.285156 18.410156 28.296875 C 18.457031 28.308594 18.480469 28.339844 18.480469 28.386719 L 18.480469 28.414062 C 18.429688 28.546875 18.34375 28.664062 18.222656 28.769531 C 18.097656 28.871094 17.960938 28.960938 17.808594 29.035156 C 17.65625 29.109375 17.5 29.167969 17.335938 29.203125 C 17.171875 29.242188 17.023438 29.257812 16.894531 29.257812 C 16.65625 29.257812 16.445312 29.21875 16.265625 29.140625 C 16.085938 29.0625 15.933594 28.957031 15.816406 28.820312 C 15.695312 28.683594 15.605469 28.519531 15.542969 28.324219 C 15.484375 28.132812 15.453125 27.921875 15.453125 27.695312 Z M 19.179688 27.78125 C 19.179688 27.585938 19.207031 27.402344 19.261719 27.222656 C 19.3125 27.042969 19.390625 26.882812 19.496094 26.742188 C 19.601562 26.601562 19.734375 26.488281 19.890625 26.402344 C 20.050781 26.320312 20.234375 26.277344 20.441406 26.277344 C 20.570312 26.277344 20.710938 26.296875 20.867188 26.335938 C 21.019531 26.375 21.167969 26.429688 21.304688 26.507812 C 21.441406 26.582031 21.554688 26.675781 21.644531 26.792969 C 21.738281 26.910156 21.78125 27.046875 21.78125 27.195312 C 21.78125 27.265625 21.769531 27.320312 21.746094 27.359375 C 21.722656 27.394531 21.671875 27.414062 21.597656 27.414062 L 21.550781 27.40625 C 21.632812 27.628906 21.707031 27.855469 21.765625 28.089844 C 21.824219 28.324219 21.882812 28.554688 21.941406 28.789062 C 21.964844 28.835938 21.980469 28.875 21.992188 28.910156 C 22.003906 28.945312 22.007812 28.980469 22.007812 29.015625 C 22.007812 29.0625 21.996094 29.097656 21.96875 29.128906 C 21.945312 29.160156 21.910156 29.179688 21.871094 29.195312 C 21.828125 29.210938 21.785156 29.21875 21.742188 29.226562 C 21.699219 29.230469 21.660156 29.234375 21.625 29.234375 C 21.503906 29.234375 21.410156 29.210938 21.347656 29.167969 C 21.289062 29.128906 21.242188 29.070312 21.214844 28.996094 C 21.191406 28.921875 21.171875 28.835938 21.167969 28.746094 C 21.160156 28.652344 21.148438 28.558594 21.132812 28.464844 C 21.097656 28.574219 21.054688 28.683594 21 28.789062 C 20.941406 28.894531 20.878906 28.988281 20.800781 29.074219 C 20.726562 29.15625 20.636719 29.226562 20.535156 29.273438 C 20.433594 29.324219 20.316406 29.347656 20.1875 29.347656 C 20 29.347656 19.84375 29.296875 19.714844 29.1875 C 19.585938 29.078125 19.484375 28.945312 19.40625 28.789062 C 19.328125 28.628906 19.269531 28.460938 19.234375 28.28125 C 19.199219 28.101562 19.179688 27.933594 19.179688 27.78125 Z M 19.789062 27.722656 C 19.789062 27.828125 19.792969 27.9375 19.808594 28.054688 C 19.824219 28.171875 19.847656 28.285156 19.878906 28.402344 C 19.910156 28.515625 19.953125 28.621094 20.003906 28.722656 C 20.054688 28.824219 20.121094 28.914062 20.199219 28.992188 C 20.335938 28.839844 20.441406 28.65625 20.507812 28.4375 C 20.574219 28.222656 20.632812 28.015625 20.6875 27.8125 C 20.738281 27.613281 20.800781 27.441406 20.867188 27.296875 C 20.933594 27.152344 21.035156 27.082031 21.175781 27.082031 C 21.265625 27.082031 21.339844 27.097656 21.398438 27.128906 C 21.371094 27.054688 21.324219 26.988281 21.257812 26.921875 C 21.191406 26.855469 21.117188 26.792969 21.039062 26.738281 C 20.957031 26.679688 20.871094 26.636719 20.785156 26.601562 C 20.699219 26.5625 20.617188 26.546875 20.539062 26.546875 C 20.515625 26.546875 20.492188 26.550781 20.460938 26.558594 C 20.429688 26.5625 20.40625 26.566406 20.390625 26.558594 C 20.273438 26.59375 20.175781 26.652344 20.101562 26.738281 C 20.027344 26.820312 19.964844 26.917969 19.917969 27.035156 C 19.871094 27.148438 19.835938 27.265625 19.816406 27.382812 C 19.796875 27.503906 19.789062 27.617188 19.789062 27.722656 Z M 22.707031 25.066406 C 22.707031 25.027344 22.75 24.996094 22.835938 24.964844 C 22.921875 24.9375 23.019531 24.914062 23.128906 24.894531 C 23.234375 24.875 23.339844 24.863281 23.441406 24.855469 C 23.542969 24.847656 23.609375 24.839844 23.648438 24.832031 C 23.648438 24.757812 23.652344 24.679688 23.65625 24.601562 C 23.664062 24.523438 23.679688 24.453125 23.703125 24.390625 C 23.730469 24.328125 23.769531 24.28125 23.824219 24.242188 C 23.882812 24.207031 23.957031 24.1875 24.058594 24.1875 C 24.140625 24.1875 24.203125 24.199219 24.246094 24.21875 C 24.289062 24.238281 24.335938 24.28125 24.382812 24.34375 C 24.394531 24.375 24.398438 24.410156 24.398438 24.441406 L 24.398438 24.582031 C 24.398438 24.582031 24.398438 24.632812 24.390625 24.730469 C 24.496094 24.71875 24.601562 24.707031 24.707031 24.691406 C 24.808594 24.675781 24.914062 24.667969 25.019531 24.667969 C 25.097656 24.667969 25.148438 24.667969 25.179688 24.671875 C 25.207031 24.675781 25.234375 24.707031 25.261719 24.773438 C 25.285156 24.839844 25.257812 24.890625 25.179688 24.921875 C 25.101562 24.957031 25.007812 24.984375 24.898438 25 C 24.789062 25.015625 24.679688 25.03125 24.570312 25.039062 C 24.464844 25.046875 24.398438 25.050781 24.375 25.050781 C 24.339844 25.542969 24.304688 26.027344 24.269531 26.507812 C 24.234375 26.988281 24.214844 27.476562 24.214844 27.972656 C 24.214844 28.195312 24.222656 28.425781 24.238281 28.660156 C 24.253906 28.898438 24.292969 29.121094 24.359375 29.332031 C 24.375 29.398438 24.402344 29.460938 24.441406 29.515625 C 24.484375 29.574219 24.503906 29.632812 24.503906 29.699219 C 24.503906 29.738281 24.488281 29.769531 24.457031 29.792969 C 24.425781 29.816406 24.386719 29.835938 24.34375 29.851562 C 24.296875 29.867188 24.253906 29.875 24.210938 29.878906 C 24.167969 29.882812 24.128906 29.882812 24.101562 29.882812 C 23.921875 29.882812 23.785156 29.816406 23.691406 29.683594 C 23.597656 29.546875 23.53125 29.386719 23.488281 29.203125 C 23.445312 29.015625 23.425781 28.824219 23.421875 28.628906 C 23.417969 28.429688 23.417969 28.269531 23.417969 28.148438 C 23.417969 27.898438 23.421875 27.640625 23.433594 27.378906 C 23.441406 27.117188 23.453125 26.859375 23.46875 26.601562 C 23.484375 26.347656 23.503906 26.09375 23.527344 25.851562 C 23.554688 25.605469 23.585938 25.378906 23.617188 25.167969 C 23.519531 25.179688 23.421875 25.191406 23.324219 25.203125 C 23.230469 25.21875 23.132812 25.226562 23.03125 25.226562 C 23.011719 25.226562 22.980469 25.226562 22.941406 25.222656 C 22.902344 25.21875 22.867188 25.210938 22.832031 25.199219 C 22.796875 25.1875 22.769531 25.171875 22.746094 25.152344 C 22.71875 25.132812 22.707031 25.105469 22.707031 25.066406 Z M 25.976562 27.679688 C 25.976562 27.417969 26.007812 27.160156 26.066406 26.90625 C 26.128906 26.65625 26.179688 26.402344 26.222656 26.152344 C 26.234375 26.089844 26.28125 26.046875 26.359375 26.03125 C 26.4375 26.015625 26.503906 26.007812 26.554688 26.007812 C 26.652344 26.007812 26.726562 26.023438 26.78125 26.050781 C 26.804688 26.0625 26.828125 26.074219 26.847656 26.089844 C 26.867188 26.105469 26.875 26.121094 26.875 26.144531 C 26.875 26.390625 26.847656 26.628906 26.789062 26.863281 C 26.730469 27.097656 26.703125 27.34375 26.703125 27.605469 C 26.703125 27.695312 26.707031 27.777344 26.722656 27.855469 C 26.734375 27.933594 26.746094 28.011719 26.757812 28.089844 L 26.78125 28.210938 C 26.78125 28.234375 26.785156 28.253906 26.789062 28.273438 C 26.789062 28.289062 26.792969 28.308594 26.800781 28.332031 C 26.800781 28.382812 26.765625 28.417969 26.691406 28.4375 C 26.617188 28.457031 26.554688 28.464844 26.5 28.464844 C 26.417969 28.464844 26.34375 28.449219 26.273438 28.414062 C 26.203125 28.382812 26.148438 28.328125 26.109375 28.246094 L 26.046875 28.125 C 26.015625 28.058594 25.996094 27.984375 25.996094 27.902344 C 25.996094 27.820312 25.988281 27.746094 25.976562 27.679688 Z M 26.25 25.105469 L 26.25 25.027344 C 26.25 24.890625 26.28125 24.773438 26.347656 24.667969 C 26.417969 24.5625 26.515625 24.507812 26.652344 24.507812 C 26.667969 24.507812 26.683594 24.511719 26.699219 24.511719 C 26.714844 24.515625 26.730469 24.515625 26.75 24.515625 C 26.78125 24.523438 26.828125 24.535156 26.882812 24.558594 C 26.9375 24.578125 26.964844 24.613281 26.964844 24.65625 L 26.964844 24.667969 C 26.957031 24.691406 26.949219 24.714844 26.945312 24.738281 C 26.941406 24.761719 26.933594 24.78125 26.925781 24.800781 L 26.933594 24.789062 C 26.898438 24.878906 26.871094 24.949219 26.847656 25.003906 C 26.828125 25.058594 26.804688 25.101562 26.777344 25.132812 C 26.753906 25.167969 26.722656 25.191406 26.683594 25.203125 C 26.644531 25.21875 26.589844 25.226562 26.519531 25.226562 C 26.507812 25.226562 26.488281 25.226562 26.457031 25.222656 C 26.429688 25.21875 26.398438 25.214844 26.367188 25.203125 C 26.332031 25.195312 26.304688 25.183594 26.28125 25.171875 C 26.261719 25.15625 26.25 25.136719 26.25 25.105469 Z M 27.753906 27.863281 C 27.753906 27.699219 27.777344 27.53125 27.816406 27.359375 C 27.859375 27.1875 27.925781 27.03125 28.015625 26.894531 C 28.105469 26.757812 28.21875 26.644531 28.355469 26.558594 C 28.492188 26.46875 28.65625 26.425781 28.847656 26.425781 C 28.996094 26.425781 29.148438 26.453125 29.308594 26.5 C 29.46875 26.550781 29.617188 26.621094 29.75 26.714844 C 29.882812 26.808594 29.992188 26.921875 30.078125 27.054688 C 30.160156 27.1875 30.203125 27.339844 30.203125 27.503906 C 30.203125 27.703125 30.167969 27.890625 30.09375 28.070312 C 30.023438 28.25 29.921875 28.410156 29.789062 28.550781 C 29.660156 28.695312 29.503906 28.804688 29.328125 28.886719 C 29.15625 28.96875 28.964844 29.007812 28.757812 29.007812 C 28.589844 29.007812 28.445312 28.976562 28.320312 28.914062 C 28.195312 28.855469 28.089844 28.773438 28.003906 28.671875 C 27.921875 28.566406 27.859375 28.445312 27.816406 28.308594 C 27.777344 28.167969 27.753906 28.019531 27.753906 27.863281 Z M 28.382812 27.855469 C 28.382812 27.90625 28.390625 27.980469 28.40625 28.082031 C 28.421875 28.179688 28.445312 28.277344 28.476562 28.375 C 28.507812 28.46875 28.550781 28.550781 28.597656 28.621094 C 28.648438 28.691406 28.710938 28.722656 28.78125 28.71875 C 28.933594 28.699219 29.054688 28.652344 29.15625 28.570312 C 29.253906 28.488281 29.332031 28.390625 29.394531 28.273438 C 29.457031 28.15625 29.5 28.027344 29.523438 27.890625 C 29.546875 27.753906 29.558594 27.625 29.558594 27.503906 C 29.558594 27.347656 29.527344 27.214844 29.464844 27.109375 C 29.40625 27.003906 29.304688 26.917969 29.164062 26.855469 C 29.164062 26.859375 29.167969 26.863281 29.175781 26.863281 C 29.179688 26.863281 29.183594 26.859375 29.183594 26.855469 L 29.074219 26.828125 C 29.046875 26.816406 29.011719 26.804688 28.972656 26.789062 C 28.929688 26.777344 28.890625 26.746094 28.847656 26.695312 C 28.738281 26.734375 28.652344 26.789062 28.589844 26.851562 C 28.53125 26.914062 28.484375 26.988281 28.453125 27.078125 C 28.421875 27.167969 28.402344 27.277344 28.394531 27.402344 C 28.386719 27.527344 28.382812 27.675781 28.382812 27.855469 Z M 30.996094 27.804688 L 30.996094 27.679688 C 30.996094 27.578125 31 27.480469 31.003906 27.386719 C 31.011719 27.261719 31.015625 27.15625 31.015625 27.070312 C 31.015625 27.027344 31.015625 26.972656 31.023438 26.917969 C 31.027344 26.859375 31.042969 26.8125 31.066406 26.777344 C 31.09375 26.75 31.128906 26.71875 31.164062 26.691406 C 31.203125 26.660156 31.246094 26.644531 31.292969 26.644531 C 31.4375 26.644531 31.550781 26.660156 31.632812 26.695312 C 31.714844 26.726562 31.761719 26.792969 31.765625 26.898438 L 31.78125 27.03125 C 31.835938 26.90625 31.902344 26.753906 31.988281 26.574219 C 32.074219 26.394531 32.171875 26.222656 32.285156 26.058594 C 32.398438 25.894531 32.523438 25.753906 32.664062 25.640625 C 32.804688 25.523438 32.957031 25.464844 33.113281 25.464844 C 33.257812 25.464844 33.375 25.535156 33.472656 25.671875 C 33.566406 25.808594 33.640625 25.980469 33.695312 26.195312 C 33.75 26.40625 33.789062 26.644531 33.8125 26.902344 C 33.835938 27.164062 33.851562 27.417969 33.859375 27.671875 C 33.867188 27.921875 33.875 28.148438 33.875 28.355469 C 33.878906 28.5625 33.890625 28.71875 33.90625 28.824219 C 33.917969 28.914062 33.9375 29.003906 33.964844 29.105469 C 33.992188 29.203125 34.003906 29.292969 34.003906 29.375 C 34.003906 29.398438 33.988281 29.417969 33.957031 29.441406 C 33.921875 29.460938 33.886719 29.480469 33.851562 29.496094 C 33.8125 29.507812 33.777344 29.519531 33.738281 29.527344 C 33.699219 29.539062 33.671875 29.542969 33.65625 29.542969 C 33.542969 29.542969 33.464844 29.457031 33.417969 29.292969 C 33.371094 29.125 33.339844 28.917969 33.328125 28.664062 C 33.320312 28.414062 33.3125 28.144531 33.3125 27.851562 C 33.3125 27.558594 33.300781 27.289062 33.28125 27.039062 C 33.261719 26.789062 33.222656 26.578125 33.160156 26.410156 C 33.101562 26.246094 33.003906 26.160156 32.867188 26.152344 C 32.746094 26.152344 32.617188 26.234375 32.488281 26.390625 C 32.355469 26.546875 32.246094 26.757812 32.152344 27.019531 C 32.058594 27.28125 31.996094 27.582031 31.960938 27.914062 C 31.953125 28.019531 31.945312 28.125 31.945312 28.230469 C 31.945312 28.460938 31.96875 28.691406 32.019531 28.921875 C 32.023438 28.960938 32.007812 28.992188 31.96875 29.011719 C 31.929688 29.03125 31.882812 29.046875 31.824219 29.058594 C 31.769531 29.070312 31.710938 29.078125 31.652344 29.082031 C 31.59375 29.082031 31.550781 29.085938 31.519531 29.085938 C 31.40625 29.085938 31.316406 29.046875 31.25 28.96875 C 31.183594 28.886719 31.132812 28.789062 31.09375 28.664062 C 31.058594 28.542969 31.035156 28.40625 31.019531 28.253906 C 31.007812 28.101562 31 27.949219 30.996094 27.804688 Z M 34.878906 27.78125 C 34.878906 27.585938 34.90625 27.402344 34.957031 27.222656 C 35.011719 27.042969 35.089844 26.882812 35.195312 26.742188 C 35.300781 26.601562 35.433594 26.488281 35.589844 26.402344 C 35.75 26.320312 35.933594 26.277344 36.140625 26.277344 C 36.269531 26.277344 36.410156 26.296875 36.566406 26.335938 C 36.71875 26.375 36.867188 26.429688 37.003906 26.507812 C 37.140625 26.582031 37.253906 26.675781 37.34375 26.792969 C 37.4375 26.910156 37.480469 27.046875 37.480469 27.195312 C 37.480469 27.265625 37.46875 27.320312 37.445312 27.359375 C 37.421875 27.394531 37.371094 27.414062 37.296875 27.414062 L 37.25 27.40625 C 37.332031 27.628906 37.40625 27.855469 37.464844 28.089844 C 37.523438 28.324219 37.582031 28.554688 37.640625 28.789062 C 37.660156 28.835938 37.679688 28.875 37.691406 28.910156 C 37.703125 28.945312 37.707031 28.980469 37.707031 29.015625 C 37.707031 29.0625 37.695312 29.097656 37.667969 29.128906 C 37.644531 29.160156 37.609375 29.179688 37.570312 29.195312 C 37.527344 29.210938 37.484375 29.21875 37.441406 29.226562 C 37.394531 29.230469 37.355469 29.234375 37.324219 29.234375 C 37.199219 29.234375 37.109375 29.210938 37.046875 29.167969 C 36.984375 29.128906 36.941406 29.070312 36.914062 28.996094 C 36.886719 28.921875 36.871094 28.835938 36.867188 28.746094 C 36.859375 28.652344 36.847656 28.558594 36.832031 28.464844 C 36.796875 28.574219 36.753906 28.683594 36.695312 28.789062 C 36.640625 28.894531 36.574219 28.988281 36.5 29.074219 C 36.425781 29.15625 36.335938 29.226562 36.234375 29.273438 C 36.132812 29.324219 36.015625 29.347656 35.886719 29.347656 C 35.699219 29.347656 35.542969 29.296875 35.414062 29.1875 C 35.285156 29.078125 35.183594 28.945312 35.105469 28.789062 C 35.023438 28.628906 34.96875 28.460938 34.933594 28.28125 C 34.898438 28.101562 34.878906 27.933594 34.878906 27.78125 Z M 35.484375 27.722656 C 35.484375 27.828125 35.492188 27.9375 35.507812 28.054688 C 35.523438 28.171875 35.546875 28.285156 35.578125 28.402344 C 35.609375 28.515625 35.652344 28.621094 35.703125 28.722656 C 35.753906 28.824219 35.820312 28.914062 35.894531 28.992188 C 36.035156 28.839844 36.140625 28.65625 36.207031 28.4375 C 36.273438 28.222656 36.332031 28.015625 36.386719 27.8125 C 36.4375 27.613281 36.496094 27.441406 36.566406 27.296875 C 36.632812 27.152344 36.734375 27.082031 36.875 27.082031 C 36.960938 27.082031 37.035156 27.097656 37.097656 27.128906 C 37.066406 27.054688 37.019531 26.988281 36.957031 26.921875 C 36.890625 26.855469 36.816406 26.792969 36.734375 26.738281 C 36.65625 26.679688 36.570312 26.636719 36.484375 26.601562 C 36.398438 26.5625 36.316406 26.546875 36.238281 26.546875 C 36.214844 26.546875 36.1875 26.550781 36.160156 26.558594 C 36.128906 26.5625 36.105469 26.566406 36.089844 26.558594 C 35.972656 26.59375 35.875 26.652344 35.800781 26.738281 C 35.722656 26.820312 35.664062 26.917969 35.617188 27.035156 C 35.570312 27.148438 35.535156 27.265625 35.515625 27.382812 C 35.496094 27.503906 35.484375 27.617188 35.484375 27.722656 Z M 38.582031 29.296875 C 38.582031 29.214844 38.585938 29.128906 38.59375 29.039062 C 38.601562 28.945312 38.605469 28.859375 38.613281 28.78125 L 38.636719 28.140625 C 38.667969 27.628906 38.699219 27.125 38.742188 26.628906 C 38.785156 26.132812 38.820312 25.632812 38.847656 25.125 C 38.863281 24.84375 38.875 24.570312 38.886719 24.300781 C 38.894531 24.03125 38.90625 23.757812 38.925781 23.480469 C 38.914062 23.457031 38.90625 23.441406 38.90625 23.433594 C 38.90625 23.390625 38.921875 23.359375 38.953125 23.339844 C 38.980469 23.316406 39.015625 23.296875 39.054688 23.28125 C 39.097656 23.265625 39.136719 23.253906 39.183594 23.25 C 39.226562 23.242188 39.261719 23.238281 39.28125 23.238281 L 39.382812 23.238281 C 39.46875 23.25 39.535156 23.277344 39.574219 23.324219 C 39.613281 23.367188 39.640625 23.417969 39.648438 23.480469 C 39.660156 23.542969 39.664062 23.609375 39.660156 23.675781 C 39.652344 23.746094 39.648438 23.8125 39.648438 23.871094 C 39.648438 24.285156 39.640625 24.707031 39.621094 25.132812 C 39.601562 25.5625 39.578125 25.992188 39.550781 26.425781 C 39.527344 26.855469 39.503906 27.289062 39.480469 27.71875 C 39.460938 28.152344 39.449219 28.578125 39.449219 29 L 39.449219 29.296875 C 39.449219 29.433594 39.410156 29.519531 39.335938 29.5625 C 39.261719 29.605469 39.15625 29.628906 39.023438 29.628906 C 38.90625 29.628906 38.804688 29.601562 38.714844 29.550781 C 38.625 29.5 38.582031 29.414062 38.582031 29.296875 Z M 42.207031 27.78125 C 42.207031 27.585938 42.234375 27.402344 42.285156 27.222656 C 42.339844 27.042969 42.417969 26.882812 42.523438 26.742188 C 42.628906 26.601562 42.761719 26.488281 42.917969 26.402344 C 43.074219 26.320312 43.257812 26.277344 43.46875 26.277344 C 43.59375 26.277344 43.738281 26.296875 43.890625 26.335938 C 44.046875 26.375 44.191406 26.429688 44.328125 26.507812 C 44.464844 26.582031 44.582031 26.675781 44.671875 26.792969 C 44.761719 26.910156 44.808594 27.046875 44.808594 27.195312 C 44.808594 27.265625 44.796875 27.320312 44.773438 27.359375 C 44.746094 27.394531 44.699219 27.414062 44.625 27.414062 L 44.578125 27.40625 C 44.660156 27.628906 44.730469 27.855469 44.792969 28.089844 C 44.851562 28.324219 44.910156 28.554688 44.964844 28.789062 C 44.988281 28.835938 45.007812 28.875 45.019531 28.910156 C 45.027344 28.945312 45.035156 28.980469 45.035156 29.015625 C 45.035156 29.0625 45.023438 29.097656 44.996094 29.128906 C 44.972656 29.160156 44.9375 29.179688 44.894531 29.195312 C 44.855469 29.210938 44.8125 29.21875 44.769531 29.226562 C 44.722656 29.230469 44.683594 29.234375 44.652344 29.234375 C 44.527344 29.234375 44.4375 29.210938 44.375 29.167969 C 44.3125 29.128906 44.269531 29.070312 44.242188 28.996094 C 44.214844 28.921875 44.199219 28.835938 44.191406 28.746094 C 44.1875 28.652344 44.175781 28.558594 44.160156 28.464844 C 44.125 28.574219 44.078125 28.683594 44.023438 28.789062 C 43.96875 28.894531 43.902344 28.988281 43.828125 29.074219 C 43.753906 29.15625 43.664062 29.226562 43.5625 29.273438 C 43.457031 29.324219 43.34375 29.347656 43.214844 29.347656 C 43.027344 29.347656 42.867188 29.296875 42.742188 29.1875 C 42.613281 29.078125 42.507812 28.945312 42.429688 28.789062 C 42.351562 28.628906 42.296875 28.460938 42.261719 28.28125 C 42.222656 28.101562 42.207031 27.933594 42.207031 27.78125 Z M 42.8125 27.722656 C 42.8125 27.828125 42.820312 27.9375 42.835938 28.054688 C 42.847656 28.171875 42.871094 28.285156 42.90625 28.402344 C 42.9375 28.515625 42.980469 28.621094 43.03125 28.722656 C 43.082031 28.824219 43.148438 28.914062 43.222656 28.992188 C 43.363281 28.839844 43.464844 28.65625 43.53125 28.4375 C 43.601562 28.222656 43.660156 28.015625 43.710938 27.8125 C 43.765625 27.613281 43.824219 27.441406 43.890625 27.296875 C 43.960938 27.152344 44.0625 27.082031 44.203125 27.082031 C 44.289062 27.082031 44.363281 27.097656 44.425781 27.128906 C 44.394531 27.054688 44.347656 26.988281 44.28125 26.921875 C 44.21875 26.855469 44.144531 26.792969 44.0625 26.738281 C 43.980469 26.679688 43.898438 26.636719 43.8125 26.601562 C 43.722656 26.5625 43.640625 26.546875 43.566406 26.546875 C 43.542969 26.546875 43.515625 26.550781 43.484375 26.558594 C 43.457031 26.5625 43.433594 26.566406 43.414062 26.558594 C 43.300781 26.59375 43.203125 26.652344 43.128906 26.738281 C 43.050781 26.820312 42.992188 26.917969 42.945312 27.035156 C 42.898438 27.148438 42.863281 27.265625 42.84375 27.382812 C 42.824219 27.503906 42.8125 27.617188 42.8125 27.722656 Z M 45.914062 27.804688 L 45.914062 27.679688 C 45.914062 27.578125 45.917969 27.480469 45.921875 27.386719 C 45.929688 27.261719 45.929688 27.15625 45.929688 27.070312 C 45.929688 27.027344 45.933594 26.972656 45.9375 26.917969 C 45.945312 26.859375 45.960938 26.8125 45.980469 26.777344 C 46.011719 26.75 46.042969 26.71875 46.082031 26.691406 C 46.121094 26.660156 46.164062 26.644531 46.207031 26.644531 C 46.355469 26.644531 46.46875 26.660156 46.550781 26.695312 C 46.632812 26.726562 46.675781 26.792969 46.683594 26.898438 L 46.699219 27.03125 C 46.75 26.90625 46.820312 26.753906 46.90625 26.574219 C 46.992188 26.394531 47.089844 26.222656 47.203125 26.058594 C 47.3125 25.894531 47.441406 25.753906 47.582031 25.640625 C 47.722656 25.523438 47.871094 25.464844 48.027344 25.464844 C 48.171875 25.464844 48.292969 25.535156 48.386719 25.671875 C 48.480469 25.808594 48.554688 25.980469 48.613281 26.195312 C 48.667969 26.40625 48.707031 26.644531 48.730469 26.902344 C 48.753906 27.164062 48.769531 27.417969 48.777344 27.671875 C 48.785156 27.921875 48.789062 28.148438 48.792969 28.355469 C 48.796875 28.5625 48.804688 28.71875 48.824219 28.824219 C 48.835938 28.914062 48.855469 29.003906 48.882812 29.105469 C 48.90625 29.203125 48.921875 29.292969 48.921875 29.375 C 48.921875 29.398438 48.90625 29.417969 48.871094 29.441406 C 48.839844 29.460938 48.804688 29.480469 48.769531 29.496094 C 48.730469 29.507812 48.691406 29.519531 48.65625 29.527344 C 48.617188 29.539062 48.589844 29.542969 48.570312 29.542969 C 48.460938 29.542969 48.382812 29.457031 48.335938 29.292969 C 48.285156 29.125 48.257812 28.917969 48.246094 28.664062 C 48.234375 28.414062 48.230469 28.144531 48.230469 27.851562 C 48.230469 27.558594 48.21875 27.289062 48.199219 27.039062 C 48.179688 26.789062 48.140625 26.578125 48.078125 26.410156 C 48.015625 26.246094 47.917969 26.160156 47.785156 26.152344 C 47.664062 26.152344 47.535156 26.234375 47.40625 26.390625 C 47.273438 26.546875 47.160156 26.757812 47.066406 27.019531 C 46.976562 27.28125 46.914062 27.582031 46.878906 27.914062 C 46.867188 28.019531 46.863281 28.125 46.863281 28.230469 C 46.863281 28.460938 46.886719 28.691406 46.933594 28.921875 C 46.941406 28.960938 46.925781 28.992188 46.886719 29.011719 C 46.847656 29.03125 46.800781 29.046875 46.742188 29.058594 C 46.6875 29.070312 46.628906 29.078125 46.570312 29.082031 C 46.511719 29.082031 46.464844 29.085938 46.433594 29.085938 C 46.324219 29.085938 46.234375 29.046875 46.167969 28.96875 C 46.101562 28.886719 46.050781 28.789062 46.011719 28.664062 C 45.976562 28.542969 45.949219 28.40625 45.9375 28.253906 C 45.925781 28.101562 45.917969 27.949219 45.914062 27.804688 Z M 49.796875 27.730469 C 49.796875 27.507812 49.820312 27.304688 49.867188 27.125 C 49.914062 26.945312 49.988281 26.792969 50.089844 26.667969 C 50.191406 26.539062 50.328125 26.445312 50.496094 26.375 C 50.660156 26.304688 50.863281 26.269531 51.101562 26.269531 C 51.238281 26.269531 51.375 26.285156 51.511719 26.324219 C 51.652344 26.359375 51.773438 26.425781 51.871094 26.519531 C 51.871094 26.464844 51.878906 26.347656 51.890625 26.167969 C 51.902344 25.992188 51.914062 25.785156 51.933594 25.546875 C 51.949219 25.308594 51.96875 25.0625 51.984375 24.804688 C 52.003906 24.542969 52.019531 24.304688 52.035156 24.082031 C 52.050781 23.859375 52.0625 23.671875 52.074219 23.523438 C 52.085938 23.371094 52.09375 23.285156 52.097656 23.265625 C 52.128906 23.183594 52.179688 23.132812 52.257812 23.117188 C 52.332031 23.101562 52.40625 23.09375 52.476562 23.09375 C 52.652344 23.09375 52.765625 23.121094 52.804688 23.179688 C 52.847656 23.238281 52.867188 23.351562 52.867188 23.523438 C 52.867188 24.144531 52.839844 24.765625 52.785156 25.382812 C 52.730469 26.003906 52.703125 26.625 52.703125 27.246094 C 52.703125 27.648438 52.710938 28.050781 52.726562 28.457031 C 52.742188 28.863281 52.796875 29.265625 52.894531 29.65625 L 52.941406 29.699219 L 52.964844 29.777344 L 52.902344 29.875 C 52.792969 29.941406 52.667969 29.976562 52.527344 29.976562 L 52.507812 29.976562 C 52.363281 29.976562 52.230469 29.941406 52.105469 29.875 C 52.0625 29.847656 52.023438 29.761719 51.992188 29.621094 C 51.964844 29.480469 51.941406 29.324219 51.921875 29.15625 C 51.90625 28.984375 51.894531 28.824219 51.886719 28.664062 C 51.875 28.507812 51.871094 28.398438 51.863281 28.332031 C 51.765625 28.558594 51.628906 28.757812 51.457031 28.921875 C 51.285156 29.082031 51.066406 29.164062 50.804688 29.164062 C 50.597656 29.164062 50.429688 29.121094 50.300781 29.03125 C 50.167969 28.945312 50.066406 28.832031 49.996094 28.695312 C 49.921875 28.558594 49.871094 28.40625 49.839844 28.238281 C 49.8125 28.066406 49.796875 27.898438 49.796875 27.730469 Z M 50.3125 27.753906 C 50.3125 27.820312 50.320312 27.917969 50.335938 28.046875 C 50.351562 28.175781 50.378906 28.300781 50.410156 28.429688 C 50.445312 28.558594 50.492188 28.671875 50.554688 28.773438 C 50.617188 28.871094 50.695312 28.921875 50.796875 28.921875 C 50.929688 28.855469 51.050781 28.746094 51.160156 28.59375 C 51.265625 28.441406 51.359375 28.273438 51.4375 28.089844 C 51.515625 27.90625 51.578125 27.722656 51.621094 27.539062 C 51.667969 27.355469 51.6875 27.199219 51.6875 27.0625 C 51.6875 26.894531 51.628906 26.757812 51.503906 26.644531 C 51.382812 26.535156 51.234375 26.476562 51.066406 26.476562 C 51.011719 26.476562 50.960938 26.488281 50.910156 26.507812 C 50.855469 26.527344 50.808594 26.550781 50.761719 26.578125 C 50.65625 26.675781 50.574219 26.765625 50.515625 26.847656 C 50.457031 26.929688 50.414062 27.011719 50.382812 27.101562 C 50.351562 27.1875 50.335938 27.28125 50.324219 27.386719 C 50.316406 27.492188 50.3125 27.617188 50.3125 27.753906 Z M 55.515625 27.179688 L 55.515625 26.503906 C 55.515625 26.035156 55.523438 25.574219 55.539062 25.113281 C 55.554688 24.652344 55.566406 24.191406 55.578125 23.722656 C 55.578125 23.632812 55.574219 23.535156 55.570312 23.425781 C 55.566406 23.394531 55.566406 23.367188 55.566406 23.339844 C 55.566406 23.265625 55.570312 23.195312 55.582031 23.128906 C 55.597656 23.039062 55.632812 22.960938 55.6875 22.894531 C 55.742188 22.828125 55.835938 22.796875 55.960938 22.796875 C 56.066406 22.796875 56.148438 22.808594 56.203125 22.828125 C 56.257812 22.851562 56.296875 22.886719 56.320312 22.929688 C 56.34375 22.972656 56.355469 23.03125 56.359375 23.097656 C 56.363281 23.164062 56.363281 23.242188 56.363281 23.328125 C 56.363281 23.800781 56.359375 24.277344 56.347656 24.753906 C 56.339844 25.066406 56.335938 25.382812 56.335938 25.699219 C 56.335938 25.859375 56.335938 26.019531 56.339844 26.179688 C 56.34375 26.652344 56.367188 27.125 56.40625 27.597656 C 56.441406 28.070312 56.507812 28.539062 56.597656 29 C 56.882812 28.988281 57.167969 28.972656 57.453125 28.957031 C 57.738281 28.9375 58.023438 28.929688 58.308594 28.929688 C 58.335938 28.929688 58.378906 28.933594 58.429688 28.9375 C 58.484375 28.945312 58.535156 28.953125 58.589844 28.96875 C 58.640625 28.984375 58.683594 29 58.722656 29.023438 C 58.757812 29.046875 58.777344 29.082031 58.777344 29.121094 C 58.777344 29.152344 58.765625 29.175781 58.738281 29.195312 C 58.714844 29.214844 58.691406 29.230469 58.667969 29.242188 L 58.660156 29.242188 C 58.613281 29.265625 58.523438 29.289062 58.386719 29.308594 C 58.25 29.332031 58.097656 29.347656 57.925781 29.359375 C 57.753906 29.371094 57.574219 29.378906 57.382812 29.386719 C 57.195312 29.394531 57.015625 29.402344 56.847656 29.410156 C 56.683594 29.414062 56.539062 29.417969 56.414062 29.421875 C 56.292969 29.425781 56.21875 29.425781 56.1875 29.425781 L 56.152344 29.425781 C 56.082031 29.425781 56.003906 29.414062 55.917969 29.390625 C 55.816406 29.363281 55.753906 29.308594 55.726562 29.226562 C 55.675781 29.015625 55.636719 28.796875 55.605469 28.570312 C 55.574219 28.34375 55.554688 28.113281 55.539062 27.878906 C 55.523438 27.644531 55.515625 27.414062 55.515625 27.179688 Z M 59.390625 27.957031 C 59.390625 27.757812 59.414062 27.523438 59.457031 27.25 C 59.503906 26.980469 59.578125 26.726562 59.683594 26.484375 C 59.789062 26.242188 59.925781 26.035156 60.097656 25.863281 C 60.269531 25.695312 60.488281 25.609375 60.75 25.609375 C 60.996094 25.609375 61.179688 25.679688 61.300781 25.824219 C 61.425781 25.964844 61.484375 26.152344 61.484375 26.394531 C 61.484375 26.550781 61.457031 26.722656 61.398438 26.90625 C 61.339844 27.09375 61.257812 27.269531 61.148438 27.4375 C 61.039062 27.605469 60.910156 27.742188 60.761719 27.855469 C 60.617188 27.964844 60.449219 28.019531 60.269531 28.019531 L 60.15625 28.011719 C 60.15625 28.089844 60.167969 28.191406 60.191406 28.320312 C 60.214844 28.453125 60.246094 28.582031 60.292969 28.707031 C 60.335938 28.835938 60.390625 28.949219 60.460938 29.046875 C 60.53125 29.144531 60.617188 29.191406 60.714844 29.191406 C 60.863281 29.191406 61 29.132812 61.136719 29.015625 C 61.269531 28.898438 61.394531 28.769531 61.515625 28.628906 C 61.636719 28.484375 61.746094 28.355469 61.847656 28.238281 C 61.949219 28.121094 62.046875 28.0625 62.128906 28.0625 C 62.175781 28.0625 62.222656 28.070312 62.273438 28.085938 C 62.320312 28.097656 62.347656 28.140625 62.351562 28.203125 C 62.351562 28.246094 62.34375 28.277344 62.320312 28.300781 C 62.300781 28.328125 62.28125 28.355469 62.261719 28.386719 C 62.175781 28.539062 62.078125 28.683594 61.976562 28.820312 C 61.871094 28.957031 61.753906 29.082031 61.621094 29.191406 C 61.492188 29.300781 61.347656 29.390625 61.191406 29.453125 C 61.039062 29.519531 60.867188 29.550781 60.679688 29.550781 C 60.433594 29.550781 60.230469 29.507812 60.066406 29.417969 C 59.90625 29.332031 59.773438 29.214844 59.675781 29.070312 C 59.574219 28.921875 59.503906 28.753906 59.457031 28.5625 C 59.414062 28.367188 59.390625 28.167969 59.390625 27.957031 Z M 60.15625 27.632812 L 60.277344 27.738281 C 60.332031 27.789062 60.390625 27.800781 60.445312 27.773438 C 60.503906 27.746094 60.554688 27.691406 60.601562 27.617188 C 60.648438 27.542969 60.6875 27.449219 60.726562 27.335938 C 60.765625 27.226562 60.800781 27.113281 60.828125 26.996094 C 60.859375 26.878906 60.882812 26.765625 60.894531 26.652344 C 60.910156 26.542969 60.917969 26.449219 60.917969 26.375 L 60.917969 26.230469 C 60.917969 26.230469 60.914062 26.179688 60.90625 26.078125 C 60.894531 25.972656 60.882812 25.933594 60.859375 25.953125 C 60.839844 25.976562 60.804688 25.957031 60.757812 25.894531 C 60.746094 25.890625 60.730469 25.890625 60.71875 25.890625 C 60.625 25.890625 60.542969 25.949219 60.472656 26.074219 C 60.398438 26.210938 60.339844 26.375 60.292969 26.570312 C 60.246094 26.765625 60.214844 26.964844 60.195312 27.171875 C 60.175781 27.375 60.164062 27.53125 60.15625 27.632812 Z M 62.960938 27.78125 C 62.960938 27.585938 62.988281 27.402344 63.042969 27.222656 C 63.09375 27.042969 63.171875 26.882812 63.277344 26.742188 C 63.382812 26.601562 63.515625 26.488281 63.671875 26.402344 C 63.832031 26.320312 64.015625 26.277344 64.222656 26.277344 C 64.351562 26.277344 64.492188 26.296875 64.648438 26.335938 C 64.804688 26.375 64.949219 26.429688 65.085938 26.507812 C 65.222656 26.582031 65.335938 26.675781 65.425781 26.792969 C 65.519531 26.910156 65.5625 27.046875 65.5625 27.195312 C 65.5625 27.265625 65.550781 27.320312 65.527344 27.359375 C 65.503906 27.394531 65.453125 27.414062 65.378906 27.414062 L 65.332031 27.40625 C 65.417969 27.628906 65.488281 27.855469 65.546875 28.089844 C 65.605469 28.324219 65.664062 28.554688 65.722656 28.789062 C 65.746094 28.835938 65.761719 28.875 65.773438 28.910156 C 65.785156 28.945312 65.789062 28.980469 65.789062 29.015625 C 65.789062 29.0625 65.777344 29.097656 65.753906 29.128906 C 65.726562 29.160156 65.691406 29.179688 65.652344 29.195312 C 65.609375 29.210938 65.566406 29.21875 65.523438 29.226562 C 65.480469 29.230469 65.441406 29.234375 65.40625 29.234375 C 65.285156 29.234375 65.191406 29.210938 65.128906 29.167969 C 65.070312 29.128906 65.023438 29.070312 65 28.996094 C 64.972656 28.921875 64.953125 28.835938 64.949219 28.746094 C 64.941406 28.652344 64.933594 28.558594 64.914062 28.464844 C 64.878906 28.574219 64.835938 28.683594 64.78125 28.789062 C 64.726562 28.894531 64.660156 28.988281 64.582031 29.074219 C 64.507812 29.15625 64.417969 29.226562 64.316406 29.273438 C 64.214844 29.324219 64.097656 29.347656 63.96875 29.347656 C 63.78125 29.347656 63.625 29.296875 63.496094 29.1875 C 63.367188 29.078125 63.265625 28.945312 63.1875 28.789062 C 63.109375 28.628906 63.050781 28.460938 63.015625 28.28125 C 62.980469 28.101562 62.960938 27.933594 62.960938 27.78125 Z M 63.570312 27.722656 C 63.570312 27.828125 63.574219 27.9375 63.589844 28.054688 C 63.605469 28.171875 63.628906 28.285156 63.660156 28.402344 C 63.695312 28.515625 63.734375 28.621094 63.785156 28.722656 C 63.839844 28.824219 63.902344 28.914062 63.980469 28.992188 C 64.117188 28.839844 64.222656 28.65625 64.289062 28.4375 C 64.355469 28.222656 64.414062 28.015625 64.46875 27.8125 C 64.519531 27.613281 64.582031 27.441406 64.648438 27.296875 C 64.714844 27.152344 64.816406 27.082031 64.957031 27.082031 C 65.046875 27.082031 65.121094 27.097656 65.179688 27.128906 C 65.152344 27.054688 65.105469 26.988281 65.039062 26.921875 C 64.972656 26.855469 64.898438 26.792969 64.820312 26.738281 C 64.738281 26.679688 64.652344 26.636719 64.566406 26.601562 C 64.480469 26.5625 64.398438 26.546875 64.320312 26.546875 C 64.296875 26.546875 64.273438 26.550781 64.242188 26.558594 C 64.210938 26.5625 64.1875 26.566406 64.171875 26.558594 C 64.054688 26.59375 63.957031 26.652344 63.882812 26.738281 C 63.808594 26.820312 63.746094 26.917969 63.699219 27.035156 C 63.652344 27.148438 63.617188 27.265625 63.597656 27.382812 C 63.578125 27.503906 63.570312 27.617188 63.570312 27.722656 Z M 66.664062 26.585938 C 66.664062 26.46875 66.6875 26.371094 66.726562 26.289062 C 66.769531 26.210938 66.855469 26.171875 66.988281 26.171875 C 67.042969 26.171875 67.105469 26.179688 67.183594 26.195312 C 67.257812 26.210938 67.304688 26.25 67.316406 26.3125 C 67.34375 26.480469 67.359375 26.660156 67.363281 26.859375 C 67.363281 27.054688 67.375 27.238281 67.390625 27.414062 C 67.457031 27.285156 67.539062 27.148438 67.644531 27 C 67.746094 26.851562 67.863281 26.714844 67.992188 26.589844 C 68.125 26.464844 68.265625 26.359375 68.421875 26.277344 C 68.574219 26.195312 68.730469 26.152344 68.890625 26.152344 C 68.902344 26.152344 68.921875 26.15625 68.957031 26.167969 C 68.988281 26.175781 69.015625 26.1875 69.042969 26.203125 C 69.070312 26.21875 69.085938 26.234375 69.09375 26.257812 C 69.097656 26.277344 69.082031 26.292969 69.042969 26.3125 C 69.035156 26.347656 69.007812 26.367188 68.972656 26.375 C 68.933594 26.378906 68.902344 26.382812 68.875 26.382812 C 68.855469 26.382812 68.828125 26.378906 68.792969 26.363281 C 68.582031 26.472656 68.402344 26.625 68.253906 26.816406 C 68.105469 27.007812 67.984375 27.21875 67.890625 27.449219 C 67.796875 27.683594 67.730469 27.925781 67.6875 28.183594 C 67.644531 28.441406 67.621094 28.695312 67.621094 28.9375 C 67.621094 29.0625 67.59375 29.136719 67.539062 29.160156 C 67.484375 29.1875 67.394531 29.199219 67.273438 29.199219 C 67.207031 29.199219 67.136719 29.191406 67.066406 29.179688 C 66.992188 29.164062 66.941406 29.117188 66.914062 29.042969 C 66.863281 28.878906 66.820312 28.691406 66.785156 28.480469 C 66.753906 28.269531 66.730469 28.054688 66.710938 27.832031 C 66.695312 27.605469 66.683594 27.386719 66.675781 27.171875 C 66.667969 26.953125 66.664062 26.757812 66.664062 26.585938 Z M 69.707031 27.804688 L 69.707031 27.679688 C 69.707031 27.578125 69.707031 27.480469 69.714844 27.386719 C 69.71875 27.261719 69.722656 27.15625 69.722656 27.070312 C 69.722656 27.027344 69.726562 26.972656 69.730469 26.917969 C 69.738281 26.859375 69.75 26.8125 69.773438 26.777344 C 69.800781 26.75 69.835938 26.71875 69.875 26.691406 C 69.914062 26.660156 69.953125 26.644531 70 26.644531 C 70.144531 26.644531 70.257812 26.660156 70.34375 26.695312 C 70.425781 26.726562 70.46875 26.792969 70.476562 26.898438 L 70.492188 27.03125 C 70.542969 26.90625 70.613281 26.753906 70.695312 26.574219 C 70.78125 26.394531 70.882812 26.222656 70.992188 26.058594 C 71.105469 25.894531 71.234375 25.753906 71.375 25.640625 C 71.515625 25.523438 71.664062 25.464844 71.820312 25.464844 C 71.964844 25.464844 72.085938 25.535156 72.179688 25.671875 C 72.273438 25.808594 72.347656 25.980469 72.402344 26.195312 C 72.460938 26.40625 72.5 26.644531 72.519531 26.902344 C 72.542969 27.164062 72.558594 27.417969 72.566406 27.671875 C 72.578125 27.921875 72.582031 28.148438 72.585938 28.355469 C 72.589844 28.5625 72.597656 28.71875 72.613281 28.824219 C 72.625 28.914062 72.644531 29.003906 72.671875 29.105469 C 72.699219 29.203125 72.714844 29.292969 72.714844 29.375 C 72.714844 29.398438 72.695312 29.417969 72.664062 29.441406 C 72.632812 29.460938 72.597656 29.480469 72.558594 29.496094 C 72.523438 29.507812 72.484375 29.519531 72.445312 29.527344 C 72.40625 29.539062 72.378906 29.542969 72.363281 29.542969 C 72.253906 29.542969 72.171875 29.457031 72.125 29.292969 C 72.078125 29.125 72.050781 28.917969 72.039062 28.664062 C 72.027344 28.414062 72.019531 28.144531 72.019531 27.851562 C 72.019531 27.558594 72.011719 27.289062 71.992188 27.039062 C 71.972656 26.789062 71.929688 26.578125 71.871094 26.410156 C 71.808594 26.246094 71.710938 26.160156 71.578125 26.152344 C 71.453125 26.152344 71.328125 26.234375 71.195312 26.390625 C 71.066406 26.546875 70.953125 26.757812 70.859375 27.019531 C 70.769531 27.28125 70.707031 27.582031 70.671875 27.914062 C 70.660156 28.019531 70.652344 28.125 70.652344 28.230469 C 70.652344 28.460938 70.679688 28.691406 70.726562 28.921875 C 70.734375 28.960938 70.714844 28.992188 70.675781 29.011719 C 70.640625 29.03125 70.589844 29.046875 70.535156 29.058594 C 70.476562 29.070312 70.417969 29.078125 70.363281 29.082031 C 70.304688 29.082031 70.257812 29.085938 70.226562 29.085938 C 70.117188 29.085938 70.027344 29.046875 69.960938 28.96875 C 69.894531 28.886719 69.839844 28.789062 69.804688 28.664062 C 69.765625 28.542969 69.742188 28.40625 69.730469 28.253906 C 69.714844 28.101562 69.707031 27.949219 69.707031 27.804688 Z M 73.589844 27.679688 C 73.589844 27.417969 73.617188 27.160156 73.679688 26.90625 C 73.742188 26.65625 73.792969 26.402344 73.835938 26.152344 C 73.847656 26.089844 73.890625 26.046875 73.96875 26.03125 C 74.046875 26.015625 74.113281 26.007812 74.167969 26.007812 C 74.261719 26.007812 74.339844 26.023438 74.394531 26.050781 C 74.417969 26.0625 74.441406 26.074219 74.460938 26.089844 C 74.480469 26.105469 74.488281 26.121094 74.488281 26.144531 C 74.488281 26.390625 74.460938 26.628906 74.402344 26.863281 C 74.34375 27.097656 74.3125 27.34375 74.3125 27.605469 C 74.3125 27.695312 74.320312 27.777344 74.332031 27.855469 C 74.347656 27.933594 74.359375 28.011719 74.371094 28.089844 L 74.394531 28.210938 C 74.394531 28.234375 74.398438 28.253906 74.398438 28.273438 C 74.402344 28.289062 74.40625 28.308594 74.414062 28.332031 C 74.414062 28.382812 74.375 28.417969 74.304688 28.4375 C 74.230469 28.457031 74.167969 28.464844 74.113281 28.464844 C 74.03125 28.464844 73.953125 28.449219 73.886719 28.414062 C 73.816406 28.382812 73.761719 28.328125 73.71875 28.246094 L 73.660156 28.125 C 73.625 28.058594 73.609375 27.984375 73.609375 27.902344 C 73.609375 27.820312 73.601562 27.746094 73.589844 27.679688 Z M 73.863281 25.105469 L 73.863281 25.027344 C 73.863281 24.890625 73.894531 24.773438 73.960938 24.667969 C 74.027344 24.5625 74.128906 24.507812 74.261719 24.507812 C 74.28125 24.507812 74.296875 24.511719 74.3125 24.511719 C 74.328125 24.515625 74.34375 24.515625 74.359375 24.515625 C 74.394531 24.523438 74.441406 24.535156 74.496094 24.558594 C 74.550781 24.578125 74.578125 24.613281 74.578125 24.65625 L 74.578125 24.667969 C 74.566406 24.691406 74.5625 24.714844 74.558594 24.738281 C 74.554688 24.761719 74.546875 24.78125 74.535156 24.800781 L 74.546875 24.789062 C 74.511719 24.878906 74.484375 24.949219 74.460938 25.003906 C 74.441406 25.058594 74.417969 25.101562 74.390625 25.132812 C 74.367188 25.167969 74.332031 25.191406 74.296875 25.203125 C 74.257812 25.21875 74.203125 25.226562 74.128906 25.226562 C 74.121094 25.226562 74.097656 25.226562 74.070312 25.222656 C 74.042969 25.21875 74.011719 25.214844 73.980469 25.203125 C 73.945312 25.195312 73.917969 25.183594 73.894531 25.171875 C 73.871094 25.15625 73.863281 25.136719 73.863281 25.105469 Z M 75.457031 27.804688 L 75.457031 27.679688 C 75.457031 27.578125 75.460938 27.480469 75.464844 27.386719 C 75.472656 27.261719 75.476562 27.15625 75.476562 27.070312 C 75.476562 27.027344 75.476562 26.972656 75.484375 26.917969 C 75.488281 26.859375 75.503906 26.8125 75.527344 26.777344 C 75.554688 26.75 75.589844 26.71875 75.625 26.691406 C 75.664062 26.660156 75.707031 26.644531 75.753906 26.644531 C 75.898438 26.644531 76.011719 26.660156 76.09375 26.695312 C 76.175781 26.726562 76.222656 26.792969 76.226562 26.898438 L 76.242188 27.03125 C 76.296875 26.90625 76.363281 26.753906 76.449219 26.574219 C 76.535156 26.394531 76.632812 26.222656 76.746094 26.058594 C 76.859375 25.894531 76.984375 25.753906 77.125 25.640625 C 77.265625 25.523438 77.417969 25.464844 77.574219 25.464844 C 77.71875 25.464844 77.835938 25.535156 77.929688 25.671875 C 78.027344 25.808594 78.101562 25.980469 78.15625 26.195312 C 78.210938 26.40625 78.25 26.644531 78.273438 26.902344 C 78.296875 27.164062 78.3125 27.417969 78.320312 27.671875 C 78.328125 27.921875 78.335938 28.148438 78.335938 28.355469 C 78.339844 28.5625 78.351562 28.71875 78.367188 28.824219 C 78.378906 28.914062 78.398438 29.003906 78.425781 29.105469 C 78.453125 29.203125 78.464844 29.292969 78.464844 29.375 C 78.464844 29.398438 78.449219 29.417969 78.417969 29.441406 C 78.382812 29.460938 78.347656 29.480469 78.3125 29.496094 C 78.273438 29.507812 78.238281 29.519531 78.199219 29.527344 C 78.160156 29.539062 78.132812 29.542969 78.117188 29.542969 C 78.003906 29.542969 77.925781 29.457031 77.878906 29.292969 C 77.832031 29.125 77.800781 28.917969 77.789062 28.664062 C 77.777344 28.414062 77.773438 28.144531 77.773438 27.851562 C 77.773438 27.558594 77.761719 27.289062 77.742188 27.039062 C 77.722656 26.789062 77.683594 26.578125 77.621094 26.410156 C 77.5625 26.246094 77.464844 26.160156 77.328125 26.152344 C 77.207031 26.152344 77.078125 26.234375 76.949219 26.390625 C 76.816406 26.546875 76.707031 26.757812 76.613281 27.019531 C 76.519531 27.28125 76.457031 27.582031 76.421875 27.914062 C 76.410156 28.019531 76.40625 28.125 76.40625 28.230469 C 76.40625 28.460938 76.429688 28.691406 76.480469 28.921875 C 76.484375 28.960938 76.46875 28.992188 76.429688 29.011719 C 76.390625 29.03125 76.34375 29.046875 76.285156 29.058594 C 76.230469 29.070312 76.171875 29.078125 76.113281 29.082031 C 76.054688 29.082031 76.011719 29.085938 75.980469 29.085938 C 75.867188 29.085938 75.777344 29.046875 75.710938 28.96875 C 75.644531 28.886719 75.59375 28.789062 75.554688 28.664062 C 75.519531 28.542969 75.496094 28.40625 75.480469 28.253906 C 75.46875 28.101562 75.460938 27.949219 75.457031 27.804688 Z M 79.339844 27.632812 C 79.339844 27.476562 79.355469 27.308594 79.386719 27.128906 C 79.414062 26.953125 79.464844 26.789062 79.539062 26.640625 C 79.613281 26.492188 79.710938 26.371094 79.839844 26.273438 C 79.96875 26.175781 80.132812 26.128906 80.332031 26.128906 C 80.464844 26.128906 80.59375 26.148438 80.71875 26.195312 C 80.84375 26.238281 80.964844 26.296875 81.074219 26.375 C 81.109375 26.320312 81.164062 26.285156 81.238281 26.269531 C 81.3125 26.257812 81.375 26.25 81.433594 26.25 C 81.457031 26.25 81.488281 26.253906 81.53125 26.257812 C 81.570312 26.257812 81.613281 26.265625 81.652344 26.28125 C 81.691406 26.296875 81.726562 26.3125 81.757812 26.332031 C 81.785156 26.351562 81.804688 26.382812 81.808594 26.417969 C 81.832031 26.617188 81.847656 26.816406 81.855469 27.015625 C 81.863281 27.210938 81.878906 27.410156 81.894531 27.605469 C 81.921875 27.972656 81.96875 28.335938 82.027344 28.695312 C 82.085938 29.054688 82.117188 29.417969 82.117188 29.785156 C 82.117188 29.957031 82.109375 30.148438 82.09375 30.347656 C 82.078125 30.550781 82.035156 30.738281 81.96875 30.910156 C 81.902344 31.082031 81.804688 31.226562 81.675781 31.339844 C 81.550781 31.453125 81.371094 31.511719 81.144531 31.511719 C 80.9375 31.511719 80.78125 31.476562 80.671875 31.402344 C 80.5625 31.328125 80.460938 31.207031 80.375 31.035156 C 80.378906 30.980469 80.417969 30.941406 80.484375 30.921875 C 80.550781 30.90625 80.609375 30.894531 80.65625 30.894531 C 80.703125 30.894531 80.746094 30.898438 80.792969 30.910156 C 80.84375 30.917969 80.878906 30.929688 80.90625 30.953125 L 81.015625 31.019531 C 81.121094 30.804688 81.183594 30.566406 81.207031 30.3125 C 81.230469 30.054688 81.242188 29.804688 81.242188 29.566406 C 81.242188 29.367188 81.230469 29.171875 81.210938 28.976562 C 81.191406 28.78125 81.171875 28.585938 81.152344 28.386719 C 80.953125 28.75 80.648438 28.929688 80.242188 28.929688 C 80.054688 28.929688 79.902344 28.890625 79.78125 28.8125 C 79.664062 28.730469 79.574219 28.628906 79.507812 28.507812 C 79.445312 28.386719 79.402344 28.246094 79.375 28.09375 C 79.351562 27.9375 79.339844 27.785156 79.339844 27.632812 Z M 79.867188 27.671875 C 79.867188 27.742188 79.867188 27.832031 79.875 27.945312 C 79.878906 28.058594 79.894531 28.167969 79.917969 28.277344 C 79.941406 28.386719 79.976562 28.476562 80.023438 28.558594 C 80.070312 28.636719 80.132812 28.675781 80.214844 28.675781 C 80.371094 28.675781 80.496094 28.613281 80.585938 28.492188 C 80.679688 28.367188 80.75 28.222656 80.804688 28.050781 C 80.855469 27.882812 80.898438 27.707031 80.929688 27.527344 C 80.960938 27.347656 81 27.199219 81.050781 27.082031 C 81.042969 27.039062 81.039062 27 81.039062 26.964844 L 81.039062 26.84375 C 80.976562 26.722656 80.878906 26.617188 80.753906 26.527344 C 80.628906 26.4375 80.5 26.378906 80.367188 26.347656 C 80.347656 26.34375 80.332031 26.339844 80.320312 26.339844 C 80.238281 26.339844 80.171875 26.386719 80.121094 26.484375 C 80.054688 26.597656 80.003906 26.734375 79.96875 26.890625 C 79.929688 27.046875 79.90625 27.203125 79.890625 27.359375 C 79.875 27.511719 79.867188 27.617188 79.867188 27.671875 Z M 84.394531 23.296875 C 84.394531 23.253906 84.421875 23.226562 84.480469 23.203125 C 84.535156 23.183594 84.570312 23.171875 84.589844 23.171875 L 84.746094 23.144531 C 84.851562 23.128906 84.957031 23.113281 85.066406 23.101562 C 85.175781 23.089844 85.28125 23.074219 85.382812 23.066406 C 85.746094 23.019531 86.105469 22.972656 86.46875 22.929688 C 86.828125 22.886719 87.195312 22.863281 87.5625 22.863281 C 87.589844 22.863281 87.628906 22.863281 87.679688 22.867188 C 87.730469 22.871094 87.777344 22.878906 87.828125 22.890625 C 87.878906 22.90625 87.921875 22.921875 87.957031 22.945312 C 87.992188 22.96875 88.011719 23 88.011719 23.039062 C 88.011719 23.066406 87.996094 23.09375 87.96875 23.113281 C 87.941406 23.136719 87.910156 23.152344 87.875 23.164062 C 87.835938 23.175781 87.800781 23.179688 87.761719 23.183594 C 87.722656 23.1875 87.691406 23.1875 87.667969 23.1875 L 87.59375 23.1875 C 87.59375 23.1875 87.570312 23.183594 87.519531 23.171875 C 87.367188 23.171875 87.21875 23.179688 87.074219 23.191406 C 86.925781 23.207031 86.777344 23.21875 86.625 23.230469 C 86.664062 23.277344 86.6875 23.339844 86.691406 23.421875 C 86.691406 23.507812 86.695312 23.578125 86.699219 23.636719 C 86.699219 24.644531 86.707031 25.648438 86.71875 26.644531 C 86.734375 27.640625 86.746094 28.648438 86.757812 29.664062 L 86.757812 29.675781 C 86.664062 29.757812 86.585938 29.808594 86.515625 29.832031 C 86.449219 29.855469 86.382812 29.867188 86.3125 29.867188 C 86.25 29.867188 86.183594 29.855469 86.117188 29.828125 C 86.046875 29.804688 85.96875 29.753906 85.875 29.675781 L 85.875 29.664062 L 85.910156 26.3125 C 85.910156 26.089844 85.90625 25.84375 85.898438 25.578125 C 85.894531 25.308594 85.890625 25.039062 85.890625 24.761719 C 85.890625 24.488281 85.894531 24.222656 85.902344 23.964844 C 85.914062 23.710938 85.933594 23.484375 85.972656 23.296875 C 85.804688 23.3125 85.625 23.339844 85.4375 23.371094 C 85.277344 23.402344 85.121094 23.414062 84.972656 23.414062 L 84.894531 23.414062 C 84.882812 23.414062 84.851562 23.417969 84.796875 23.417969 C 84.738281 23.421875 84.683594 23.421875 84.625 23.414062 C 84.566406 23.410156 84.511719 23.398438 84.464844 23.378906 C 84.417969 23.363281 84.394531 23.335938 84.394531 23.296875 Z M 88.535156 27.863281 C 88.535156 27.699219 88.554688 27.53125 88.597656 27.359375 C 88.636719 27.1875 88.703125 27.03125 88.792969 26.894531 C 88.882812 26.757812 88.996094 26.644531 89.132812 26.558594 C 89.269531 26.46875 89.433594 26.425781 89.628906 26.425781 C 89.773438 26.425781 89.925781 26.453125 90.085938 26.5 C 90.25 26.550781 90.394531 26.621094 90.53125 26.714844 C 90.664062 26.808594 90.773438 26.921875 90.855469 27.054688 C 90.941406 27.1875 90.984375 27.339844 90.984375 27.503906 C 90.984375 27.703125 90.945312 27.890625 90.875 28.070312 C 90.800781 28.25 90.699219 28.410156 90.566406 28.550781 C 90.4375 28.695312 90.285156 28.804688 90.109375 28.886719 C 89.933594 28.96875 89.742188 29.007812 89.539062 29.007812 C 89.371094 29.007812 89.222656 28.976562 89.097656 28.914062 C 88.972656 28.855469 88.867188 28.773438 88.785156 28.671875 C 88.699219 28.566406 88.636719 28.445312 88.597656 28.308594 C 88.554688 28.167969 88.535156 28.019531 88.535156 27.863281 Z M 89.164062 27.855469 C 89.164062 27.90625 89.171875 27.980469 89.1875 28.082031 C 89.203125 28.179688 89.226562 28.277344 89.257812 28.375 C 89.289062 28.46875 89.328125 28.550781 89.378906 28.621094 C 89.429688 28.691406 89.488281 28.722656 89.558594 28.71875 C 89.710938 28.699219 89.835938 28.652344 89.933594 28.570312 C 90.03125 28.488281 90.113281 28.390625 90.171875 28.273438 C 90.234375 28.15625 90.277344 28.027344 90.300781 27.890625 C 90.324219 27.753906 90.335938 27.625 90.335938 27.503906 C 90.335938 27.347656 90.308594 27.214844 90.246094 27.109375 C 90.183594 27.003906 90.085938 26.917969 89.945312 26.855469 C 89.945312 26.859375 89.949219 26.863281 89.953125 26.863281 C 89.957031 26.863281 89.960938 26.859375 89.960938 26.855469 L 89.855469 26.828125 C 89.828125 26.816406 89.792969 26.804688 89.75 26.789062 C 89.707031 26.777344 89.667969 26.746094 89.628906 26.695312 C 89.515625 26.734375 89.429688 26.789062 89.371094 26.851562 C 89.308594 26.914062 89.261719 26.988281 89.230469 27.078125 C 89.199219 27.167969 89.179688 27.277344 89.171875 27.402344 C 89.167969 27.527344 89.164062 27.675781 89.164062 27.855469 Z M 91.773438 26.828125 C 91.773438 26.746094 91.796875 26.691406 91.84375 26.667969 C 91.890625 26.640625 91.949219 26.628906 92.019531 26.628906 C 92.136719 26.628906 92.226562 26.648438 92.285156 26.695312 C 92.347656 26.738281 92.378906 26.816406 92.378906 26.925781 C 92.378906 27.0625 92.386719 27.226562 92.410156 27.429688 C 92.429688 27.628906 92.457031 27.824219 92.496094 28.015625 C 92.535156 28.203125 92.578125 28.367188 92.632812 28.503906 C 92.683594 28.640625 92.738281 28.707031 92.796875 28.707031 C 92.902344 28.707031 92.996094 28.628906 93.078125 28.464844 C 93.15625 28.300781 93.230469 28.101562 93.289062 27.867188 C 93.351562 27.628906 93.40625 27.375 93.449219 27.105469 C 93.492188 26.832031 93.523438 26.589844 93.539062 26.375 C 93.550781 26.257812 93.578125 26.175781 93.625 26.121094 C 93.667969 26.070312 93.75 26.042969 93.863281 26.042969 C 94 26.042969 94.097656 26.097656 94.15625 26.210938 C 94.21875 26.320312 94.257812 26.457031 94.273438 26.621094 C 94.289062 26.757812 94.296875 26.902344 94.296875 27.054688 L 94.296875 27.296875 C 94.296875 27.40625 94.296875 27.503906 94.300781 27.589844 L 94.425781 30.207031 L 94.441406 30.644531 C 94.449219 30.683594 94.453125 30.722656 94.453125 30.757812 C 94.457031 30.792969 94.460938 30.832031 94.460938 30.871094 C 94.460938 31.03125 94.425781 31.136719 94.355469 31.183594 C 94.285156 31.230469 94.171875 31.253906 94.015625 31.253906 C 93.980469 31.253906 93.9375 31.253906 93.882812 31.246094 C 93.832031 31.242188 93.78125 31.230469 93.730469 31.210938 C 93.679688 31.195312 93.636719 31.171875 93.601562 31.140625 C 93.566406 31.113281 93.550781 31.074219 93.550781 31.027344 L 93.566406 30.984375 C 93.582031 30.816406 93.585938 30.636719 93.585938 30.449219 L 93.585938 30.359375 C 93.585938 30.136719 93.578125 29.910156 93.566406 29.683594 C 93.554688 29.453125 93.542969 29.226562 93.527344 29 C 93.511719 28.769531 93.507812 28.550781 93.507812 28.339844 C 93.464844 28.429688 93.421875 28.519531 93.367188 28.613281 C 93.316406 28.707031 93.253906 28.792969 93.183594 28.867188 C 93.113281 28.945312 93.035156 29.007812 92.945312 29.058594 C 92.859375 29.105469 92.757812 29.132812 92.648438 29.132812 C 92.484375 29.132812 92.351562 29.089844 92.246094 29.003906 C 92.140625 28.917969 92.058594 28.808594 92 28.671875 C 91.941406 28.535156 91.898438 28.378906 91.875 28.210938 C 91.847656 28.042969 91.832031 27.871094 91.824219 27.703125 C 91.8125 27.53125 91.808594 27.371094 91.804688 27.21875 C 91.804688 27.0625 91.792969 26.933594 91.773438 26.828125 Z M 95.332031 26.679688 C 95.332031 26.5625 95.367188 26.460938 95.4375 26.378906 C 95.503906 26.292969 95.585938 26.226562 95.6875 26.171875 C 95.785156 26.121094 95.890625 26.082031 96.007812 26.054688 C 96.125 26.03125 96.234375 26.015625 96.332031 26.015625 C 96.410156 26.015625 96.511719 26.027344 96.640625 26.050781 C 96.769531 26.074219 96.894531 26.109375 97.015625 26.152344 C 97.140625 26.199219 97.246094 26.257812 97.335938 26.332031 C 97.425781 26.40625 97.46875 26.492188 97.46875 26.59375 C 97.46875 26.640625 97.453125 26.679688 97.417969 26.714844 C 97.382812 26.75 97.347656 26.769531 97.3125 26.769531 C 97.234375 26.769531 97.164062 26.742188 97.101562 26.695312 C 97.039062 26.644531 96.976562 26.589844 96.90625 26.535156 C 96.839844 26.480469 96.765625 26.425781 96.6875 26.378906 C 96.609375 26.328125 96.519531 26.304688 96.417969 26.304688 C 96.320312 26.304688 96.230469 26.335938 96.148438 26.398438 C 96.066406 26.464844 96.027344 26.546875 96.027344 26.652344 C 96.027344 26.828125 96.085938 26.996094 96.210938 27.164062 C 96.332031 27.332031 96.464844 27.503906 96.613281 27.691406 C 96.757812 27.875 96.894531 28.066406 97.015625 28.269531 C 97.140625 28.46875 97.199219 28.695312 97.199219 28.9375 C 97.199219 29.042969 97.179688 29.132812 97.132812 29.207031 C 97.089844 29.277344 97.03125 29.339844 96.960938 29.382812 C 96.886719 29.429688 96.804688 29.464844 96.714844 29.488281 C 96.621094 29.511719 96.535156 29.523438 96.449219 29.523438 C 96.355469 29.523438 96.246094 29.503906 96.121094 29.457031 C 95.996094 29.414062 95.875 29.355469 95.765625 29.28125 C 95.652344 29.210938 95.5625 29.125 95.484375 29.027344 C 95.410156 28.933594 95.371094 28.832031 95.371094 28.726562 C 95.371094 28.675781 95.410156 28.640625 95.480469 28.628906 C 95.554688 28.613281 95.605469 28.605469 95.640625 28.605469 C 95.65625 28.605469 95.683594 28.613281 95.71875 28.621094 C 95.753906 28.632812 95.789062 28.648438 95.824219 28.660156 C 95.859375 28.675781 95.890625 28.691406 95.917969 28.707031 C 95.945312 28.726562 95.953125 28.742188 95.949219 28.765625 C 95.976562 28.796875 96.019531 28.847656 96.078125 28.914062 C 96.136719 28.984375 96.195312 29.035156 96.253906 29.078125 C 96.3125 29.121094 96.363281 29.132812 96.40625 29.121094 C 96.453125 29.113281 96.472656 29.046875 96.472656 28.929688 C 96.472656 28.707031 96.414062 28.503906 96.292969 28.316406 C 96.175781 28.132812 96.042969 27.949219 95.902344 27.769531 C 95.761719 27.59375 95.632812 27.417969 95.511719 27.242188 C 95.394531 27.066406 95.332031 26.878906 95.332031 26.679688 Z M 95.332031 26.679688 "/>
</g>
</svg>
